<?xml version="1.0" ?><!DOCTYPE svg  PUBLIC '-//W3C//DTD SVG 1.1//EN'  'http://www.w3.org/Graphics/SVG/1.1/DTD/svg11.dtd'><svg enable-background="new 0 0 512 512" height="512px" id="Layer_1" version="1.1" viewBox="0 0 512 512" width="512px" xml:space="preserve" xmlns="http://www.w3.org/2000/svg" xmlns:xlink="http://www.w3.org/1999/xlink"><g><g><g><path d="M7.9,256C7.9,119,119,7.9,256,7.9C393,7.9,504.1,119,504.1,256c0,137-111.1,248.1-248.1,248.1     C119,504.1,7.9,393,7.9,256z" fill="#F3F2F2"/></g></g><g><g><g><path d="M116.7,213.3c-48.4,0-50.2,37.6-50,47.4c0,0-2.4,44,48.8,44c44,0,46.1-27.6,46.1-27.6l-20.2,0      c0,0-3.9,15.2-25.8,14.8c-28.1-0.5-29.2-27.8-29.2-27.8h77.9C164.3,264.2,170.2,213.3,116.7,213.3z M87,250.8      c0,0,1.4-24.6,29.2-24.7c27.7,0,27.7,24.7,27.7,24.7H87z" fill="#EE3B3F"/></g></g><g><g><path d="M218.4,213.3c-24.3-0.1-34.8,14.4-34.8,14.4v-48.6h-19.5l0.3,102.8c0,0-0.1,12-0.8,19.9h18.9l0.8-11.5      c0,0,8.8,14.5,34.6,14.5c25.8,0,46.2-15.9,46.7-45.4C265.3,229.9,242.8,213.4,218.4,213.3z M214,291.6      c-30.7,0.4-30.2-32.6-30.2-32.6s-1.1-31.7,30.2-32.5c31.3-0.8,30.3,33.2,30.3,33.2S244.7,291.2,214,291.6z" fill="#0468B2"/></g></g><g><g><path d="M354.8,281.4c0-13.3,0.4-25.2,0-33.5c-0.5-9.7,0.4-33.1-41.6-34.9c0,0-40.2-3.7-44.4,26.3h20.6      c0,0,1.6-13.7,22.5-13.3c19.8,0.4,23.4,10.1,23.3,22c0,0-16.9,0.1-22.6,0.1c-10.2,0-45.8,1.2-49.2,22.9      c-4,25.8,19.1,33.9,37.1,33.8c18-0.1,28.3-5.5,36-15.2l0.8,12l17.9-0.1C355.2,301.5,354.8,294.7,354.8,281.4z M303.9,292.3      c0,0-19.5,0-20.7-15.6C282,260,313.3,261,313.3,261l22.1,0C335.4,261,338.9,292.7,303.9,292.3z" fill="#F7AB1B"/></g></g><g><polygon fill="#6BB745" points="344.2,216.6 366.8,216.6 399.9,282.5 433,216.6 453.5,216.6 393.6,334.1 371.7,334.1      389.1,301.5    "/></g><g><g><path d="M461.1,221.3v-2.4h-0.8v-0.9h0.8v-1.3h1.4v1.3h1.6v0.9h-1.6v2.3c0,0.4,0.3,0.6,0.7,0.6      c0.3,0,0.6-0.1,0.8-0.2v0.9c-0.3,0.1-0.7,0.2-1.2,0.2C461.8,222.6,461.1,222.3,461.1,221.3z" fill="#231F20"/></g><g><path d="M465.5,217.9h1.4v0.7c0.4-0.4,0.9-0.8,1.8-0.8c0.8,0,1.5,0.3,1.8,0.8c0.5-0.5,1.1-0.8,2-0.8      c1.3,0,2.1,0.6,2.1,1.8v3h-1.4v-2.6c0-0.7-0.4-1.1-1.2-1.1c-0.7,0-1.3,0.4-1.3,1.1v2.6h-1.4v-2.6c0-0.7-0.5-1.1-1.2-1.1      c-0.8,0-1.3,0.4-1.3,1.1v2.6h-1.4V217.9z" fill="#231F20"/></g></g></g></g></svg>